<?xml version="1.0" standalone="no"?>
<!DOCTYPE svg PUBLIC "-//W3C//DTD SVG 20010904//EN" "http://www.w3.org/TR/2001/REC-SVG-20010904/DTD/svg10.dtd">
<svg version="1.0" xmlns="http://www.w3.org/2000/svg"
    width="128.000000pt" height="128.000000pt" viewBox="0 0 128.000000 128.000000"
    preserveAspectRatio="xMidYMid meet">

    <g transform="translate(0.000000,128.000000) scale(0.100000,-0.100000)"
        fill="#519405" stroke="#519405" stroke-width="22">
        <path
            d="M310 869 c-129 -16 -241 -31 -248 -34 -24 -9 -44 -75 -38 -124 8 -58
8 -84 0 -144 -4 -29 -1 -59 6 -76 10 -25 9 -34 -7 -57 -27 -41 -26 -186 2
-232 10 -17 26 -34 35 -37 45 -14 710 -85 749 -80 26 3 60 8 78 11 32 5 32 4
35 -42 2 -26 8 -49 15 -51 7 -3 24 14 38 37 l27 42 27 -33 c34 -40 51 -32 51
25 l0 43 93 12 c50 7 96 16 101 21 6 6 -1 19 -16 34 -49 45 -50 187 -1 232
l25 23 -21 27 c-27 35 -28 93 0 128 l20 26 -20 26 c-28 35 -27 93 0 128 13 16
18 31 13 36 -9 9 -668 91 -709 89 -11 -1 -126 -14 -255 -30z m498 -36 c133
-15 242 -30 242 -33 0 -4 -64 -14 -142 -23 l-143 -17 -237 28 c-131 14 -238
29 -238 33 0 3 57 13 128 21 70 8 132 16 137 17 6 1 119 -11 253 -26z m-683
-39 c18 -4 20 -13 18 -72 l-2 -67 -28 3 c-36 4 -53 27 -53 70 0 60 18 79 65
66z m341 -40 l240 -27 0 -69 c-1 -38 -5 -68 -11 -68 -39 -2 -403 45 -412 53
-8 5 -13 32 -13 64 0 46 -3 54 -17 51 -14 -2 -19 -15 -21 -61 -3 -60 -10 -68
-36 -41 -28 28 -17 138 13 130 9 -2 124 -17 257 -32z m740 -52 l0 -68 -220
-27 c-248 -30 -246 -30 -246 43 0 65 6 68 215 94 105 13 204 24 220 25 l30 1
1 -68z m-871 -112 c99 -11 194 -22 210 -25 l30 -5 -3 -70 c-2 -38 -7 -70 -12
-70 -24 0 -40 34 -40 86 0 41 -4 54 -15 54 -19 0 -29 -41 -22 -91 l5 -40 -31
6 c-18 3 -108 14 -202 25 -186 22 -195 26 -195 88 0 56 16 74 58 68 20 -3 118
-15 217 -26z m871 -68 l0 -68 -220 -27 c-248 -30 -246 -30 -246 43 0 65 6 68
215 94 105 13 204 24 220 25 l30 1 1 -68z m-500 -43 l-1 -69 -32 0 c-56 0 -63
7 -63 65 0 76 3 81 53 77 l43 -4 0 -69z m-593 -71 c-4 -18 -8 -73 -7 -121 0
-83 -1 -88 -20 -85 -29 4 -49 69 -43 139 6 72 21 99 53 99 24 0 25 -2 17 -32z
m80 -10 c-4 -18 -8 -72 -8 -120 1 -64 -2 -88 -12 -88 -19 0 -36 78 -30 141 6
64 21 99 43 99 13 0 14 -6 7 -32z m230 1 c84 -10 97 -14 91 -28 -12 -31 -16
-146 -6 -183 12 -45 25 -43 -133 -23 -65 8 -123 15 -127 15 -15 0 -30 86 -25
141 7 83 20 102 65 95 20 -3 81 -11 135 -17z m772 -6 c-15 -35 -17 -124 -5
-168 7 -25 11 -47 9 -49 -2 -2 -30 -7 -61 -10 l-58 -7 0 57 c0 42 4 60 18 70
12 9 14 16 6 24 -8 8 -37 7 -107 -1 -83 -11 -97 -15 -97 -31 0 -10 5 -18 10
-18 6 0 10 -26 10 -59 l0 -59 -37 -6 c-130 -19 -131 -19 -143 4 -29 53 -19
203 13 216 15 5 379 51 421 53 23 1 27 -2 21 -16z m-600 -30 c-13 -33 -17
-147 -7 -185 9 -32 8 -38 -4 -38 -36 0 -58 137 -33 209 7 21 18 31 31 31 15 0
18 -4 13 -17z m98 -39 c-15 -45 -14 -139 2 -177 6 -14 2 -17 -19 -17 -21 0
-30 7 -42 35 -17 41 -18 129 -3 174 9 26 16 31 44 31 l34 0 -16 -46z m347
-136 l0 -81 -21 19 c-21 19 -21 18 -40 -5 l-19 -23 0 79 c0 44 3 83 7 86 3 4
21 7 40 7 l33 0 0 -82z" />
    </g>
</svg>