<?xml version="1.0"?>
<svg style="enable-background:new 0 0 512 512;" version="1.1" viewBox="0 0 512 512" xml:space="preserve" xmlns="http://www.w3.org/2000/svg" xmlns:xlink="http://www.w3.org/1999/xlink">
    <g id="_x39__x2C__home_x2C__house_x2C__building_x2C__property_x2C__rent">
        <g>
            <polygon points="447.76,235.1 447.35,235.51 447.35,468.67 309.39,468.67 309.39,307.13 202.61,307.13     202.61,468.67 64.65,468.67 64.65,235.52 64.65,235.51 256.01,43.33   " style="fill:#f3b304;" />
            <path d="M490.01,287.36c-2.56,0-5.119-0.977-7.072-2.93l-42.25-42.26L256.024,57.488L71.736,242.566    c-3.897,3.913-10.229,3.927-14.142,0.03c-3.914-3.896-3.927-10.228-0.03-14.142l191.36-192.18    c1.874-1.882,4.419-2.941,7.076-2.944c0.003,0,0.007,0,0.01,0c2.652,0,5.196,1.054,7.071,2.929l191.75,191.77l42.25,42.261    c3.905,3.906,3.904,10.237-0.001,14.143C495.127,286.384,492.568,287.36,490.01,287.36z" />
            <path d="M21.99,288.36c-2.552,0-5.104-0.971-7.056-2.914c-3.914-3.896-3.927-10.229-0.03-14.142l42.66-42.841    c3.897-3.914,10.229-3.927,14.142-0.03s3.927,10.229,0.03,14.142l-42.66,42.84C27.123,287.379,24.556,288.36,21.99,288.36z" />
            <path d="M447.35,478.67H309.39c-5.523,0-10-4.478-10-10s4.477-10,10-10h127.96V235.51c0-5.523,4.477-10,10-10s10,4.477,10,10    v233.16C457.35,474.192,452.873,478.67,447.35,478.67z" />
            <path d="M202.61,478.67H64.65c-5.523,0-10-4.478-10-10V235.52c0-5.523,4.477-10.005,10-10.005s10,4.472,10,9.995v223.16h127.96    c5.523,0,10,4.478,10,10S208.133,478.67,202.61,478.67z" />
            <path d="M309.39,478.67c-5.523,0-10-4.478-10-10V317.13h-86.78v151.54c0,5.522-4.477,10-10,10s-10-4.478-10-10V307.13    c0-5.522,4.477-10,10-10h106.78c5.523,0,10,4.478,10,10v161.54C319.39,474.192,314.913,478.67,309.39,478.67z" />
            <polygon points="425.33,97.56 425.33,212.5 375.81,162.98 375.81,97.56   " style="fill:#C0392B;" />
            <path d="M425.333,222.5c-2.603,0-5.16-1.016-7.074-2.929l-49.52-49.52c-1.875-1.875-2.929-4.419-2.929-7.071V97.56    c0-5.523,4.477-10,10-10h49.52c5.523,0,10,4.477,10,10V212.5c0,4.044-2.437,7.691-6.173,9.239    C427.92,222.251,426.62,222.5,425.333,222.5z M385.81,158.838l29.52,29.52V107.56h-29.52V158.838z" />
        </g>
    </g>
    <g id="Layer_1" />
</svg>